<?xml version="1.0" standalone="no"?>
<!DOCTYPE svg PUBLIC "-//W3C//DTD SVG 20010904//EN"
 "http://www.w3.org/TR/2001/REC-SVG-20010904/DTD/svg10.dtd">
<svg version="1.0" xmlns="http://www.w3.org/2000/svg"
 width="700.000000pt" height="700.000000pt" viewBox="0 0 700.000000 700.000000"
 preserveAspectRatio="xMidYMid meet">
<metadata>
Created by potrace 1.11, written by Peter Selinger 2001-2013
</metadata>
<g transform="translate(0.000000,700.000000) scale(0.100000,-0.100000)"
fill="#000000" stroke="none">
<path d="M1405 6123 c-77 -11 -140 -30 -205 -61 -146 -70 -272 -229 -311 -392
-20 -83 -21 -4212 -1 -4320 41 -227 220 -407 463 -466 13 -4 969 -7 2124 -8
2132 -2 2186 -1 2260 33 114 52 147 73 211 136 80 80 122 149 155 256 l23 74
0 2130 -1 2130 -26 80 c-66 199 -234 354 -432 396 -48 10 -485 13 -2150 14
-1149 0 -2099 -1 -2110 -2z m2328 -887 c15 -3 55 -11 90 -17 408 -71 824 -328
1072 -664 189 -255 294 -513 341 -835 11 -69 11 -356 1 -435 -12 -90 -43 -235
-66 -298 -11 -31 -17 -57 -14 -57 3 0 1 -6 -4 -12 -5 -7 -18 -35 -28 -63 -10
-27 -41 -95 -69 -150 -261 -510 -748 -856 -1326 -940 -25 -4 -117 -8 -205 -10
-338 -6 -630 72 -930 250 -396 234 -704 660 -801 1110 -32 149 -39 216 -39
395 1 165 4 200 30 338 27 140 122 407 161 453 8 8 14 23 14 32 0 9 4 18 9 22
6 3 24 30 41 59 79 138 244 328 390 446 246 201 584 344 888 376 31 4 59 8 60
9 6 6 356 -3 385 -9z"/>
<path d="M3360 4659 c-36 -5 -76 -11 -90 -15 -14 -4 -33 -9 -44 -11 -95 -18
-250 -88 -371 -168 -151 -100 -220 -90 641 -90 415 0 754 3 754 7 0 16 -137
109 -230 156 -119 61 -217 93 -360 118 -56 9 -229 11 -300 3z"/>
<path d="M2482 4055 c-37 -69 -65 -134 -87 -205 -23 -72 -28 -90 -41 -170 l-6
-35 1134 1 c623 1 1141 2 1151 3 16 1 18 7 12 44 -16 104 -92 320 -130 371
-15 19 -37 20 -1016 20 l-1001 1 -16 -30z"/>
<path d="M2354 3349 c-2 -3 -1 -17 1 -30 3 -13 9 -46 14 -74 21 -112 109 -324
135 -326 15 -1 1943 -1 1979 0 25 1 32 10 67 84 42 89 88 235 97 307 l5 45
-1147 0 c-631 0 -1149 -3 -1151 -6z"/>
<path d="M2750 2619 c0 -4 17 -20 37 -35 169 -130 389 -222 578 -242 285 -29
545 35 780 193 148 100 218 90 -641 90 -415 0 -754 -3 -754 -6z"/>
</g>
</svg>
