<svg width="24" height="24" viewBox="0 0 24 24" fill="none" xmlns="http://www.w3.org/2000/svg">
<path d="M7.2 6C7.2 5.68174 7.32643 5.37652 7.55147 5.15148C7.77652 4.92643 8.08174 4.8 8.4 4.8H15.6C15.9183 4.8 16.2235 4.92643 16.4485 5.15148C16.6736 5.37652 16.8 5.68174 16.8 6V7.2C16.8 7.51826 16.6736 7.82349 16.4485 8.04853C16.2235 8.27357 15.9183 8.4 15.6 8.4H8.4C8.08174 8.4 7.77652 8.27357 7.55147 8.04853C7.32643 7.82349 7.2 7.51826 7.2 7.2V6ZM8.4 6V7.2H15.6V6H8.4Z" fill="black"/>
<path d="M4.8 4.8V19.2C4.8 19.8365 5.05286 20.447 5.50294 20.8971C5.95303 21.3471 6.56348 21.6 7.2 21.6H18.6C18.7591 21.6 18.9117 21.5368 19.0243 21.4243C19.1368 21.3117 19.2 21.1591 19.2 21C19.2 20.8409 19.1368 20.6883 19.0243 20.5757C18.9117 20.4632 18.7591 20.4 18.6 20.4H7.2C6.88174 20.4 6.57652 20.2736 6.35147 20.0485C6.12643 19.8235 6 19.5183 6 19.2H18C18.3183 19.2 18.6235 19.0736 18.8485 18.8485C19.0736 18.6235 19.2 18.3183 19.2 18V4.8C19.2 4.16348 18.9471 3.55303 18.4971 3.10295C18.047 2.65286 17.4365 2.4 16.8 2.4H7.2C6.56348 2.4 5.95303 2.65286 5.50294 3.10295C5.05286 3.55303 4.8 4.16348 4.8 4.8V4.8ZM16.8 3.6C17.1183 3.6 17.4235 3.72643 17.6485 3.95147C17.8736 4.17652 18 4.48174 18 4.8V18H6V4.8C6 4.48174 6.12643 4.17652 6.35147 3.95147C6.57652 3.72643 6.88174 3.6 7.2 3.6H16.8Z" fill="black"/>
</svg>
